<?xml version="1.0" encoding="UTF-8"?>
<svg width="1024px" height="1024px" viewBox="0 0 1024 1024" version="1.1" xmlns="http://www.w3.org/2000/svg" xmlns:xlink="http://www.w3.org/1999/xlink">
    <title>email_bot</title>
    <g id="Page-1" stroke="none" stroke-width="1" fill="none" fill-rule="evenodd">
        <g id="email_bot" fill-rule="nonzero">
            <rect id="Rectangle" fill="#FFE300" x="0" y="0" width="1024" height="1024"></rect>
            <g id="email-18-svgrepo-com" transform="translate(112, 203)" fill="#000000">
                <path d="M104.271875,536.703125 C95.05,536.703125 86.4265625,534.279688 79.0609375,530.020312 L296.325,340.673438 L316.604687,358.320312 C333.578125,373.070313 354.823437,380.539062 375.870313,380.539062 C397.020313,380.539062 418.265625,373.070313 435.239063,358.320312 L455.509375,340.673438 L529.0625,404.795312 C537.38125,390.778125 547.717188,378.148438 559.707812,367.235938 L492.375,308.56875 L698.401563,128.825 L698.401563,327.39375 C717.557813,330.8875 735.520312,337.7375 751.739063,347.315625 L751.739063,104.284375 C751.739063,97.403125 751.067188,90.59375 749.807812,84.0046875 C746.409375,66.934375 738.845312,51.3140625 728.279688,38.409375 C726.045312,35.596875 723.715625,33.0796875 721.185937,30.5625 C702.470312,11.740625 676.179688,0 647.464062,0 L104.271875,0 C75.5578125,0 49.371875,11.740625 30.55,30.5625 C28.03125,33.0796875 25.703125,35.596875 23.46875,38.409375 C12.89375,51.3140625 5.3296875,66.934375 2.0359375,84.0046875 C0.671875,90.59375 0,97.403125 0,104.284375 L0,485.7875 C0,500.423438 3.1046875,514.492187 8.634375,527.196875 C13.7640625,539.325 21.3390625,550.298437 30.55,559.498438 C32.8796875,561.828125 35.2078125,563.967188 37.7265625,566.098438 C55.771875,581.0375 79.0609375,590.060938 104.271875,590.060938 L542.523437,590.060938 C529.839063,574.385938 519.967188,556.3625 513.754688,536.701562 L104.271875,536.701562 L104.271875,536.703125 Z M68.2765625,68.2890625 C77.5921875,58.9828125 90.109375,53.35 104.271875,53.35 L647.467188,53.35 C661.63125,53.35 674.251562,58.984375 683.4625,68.2890625 C685.098437,69.946875 686.653125,71.79375 688.026562,73.6296875 L403.325,321.757813 C395.467188,328.640625 385.7625,332.040625 375.870313,332.040625 C366.071875,332.040625 356.376562,328.640625 348.414062,321.757813 L63.828125,73.525 C65.0875,71.6890625 66.640625,69.946875 68.2765625,68.2890625 Z M53.3375,485.789063 L53.3375,128.729688 L259.375,308.465625 L53.4421875,488.0125 C53.3375,487.33125 53.3375,486.565625 53.3375,485.789063 Z" id="Shape"></path>
                <path d="M669.195313,356.8625 C596.953125,356.8625 538.410938,415.425 538.410938,487.667188 C538.410938,559.898438 596.953125,618.460938 669.195313,618.460938 C741.448438,618.460938 800,559.898437 800,487.667188 C800,415.423437 741.448438,356.8625 669.195313,356.8625 Z M689.421875,550.225 L657.654688,550.225 L657.654688,462.067188 L657.276562,462.067188 L634.239063,472.946875 L629.432813,445.103125 L661.704688,430.351563 L689.423438,430.351563 L689.423438,550.225 L689.421875,550.225 Z" id="Shape"></path>
            </g>
        </g>
    </g>
</svg>